<?xml version="1.0" encoding="UTF-8"?>
<svg version="1.1" xmlns="http://www.w3.org/2000/svg" width="806" height="747">
<path d="M0 0 C0.99674744 0.00182281 1.99349487 0.00364563 3.02044678 0.00552368 C19.65587981 0.05643866 35.96432111 0.82355419 52.4375 3.3125 C53.58734375 3.48410645 54.7371875 3.65571289 55.921875 3.83251953 C119.41351391 13.61323869 180.35494881 39.50405352 229.4375 81.3125 C230.60269382 82.29186986 231.76806992 83.2710229 232.93359375 84.25 C238.77556385 89.18235831 244.45694604 94.15121066 249.77734375 99.65234375 C251.6002788 101.53095517 251.6002788 101.53095517 254.5 103.8125 C257.45256571 106.32532188 259.83245836 108.95381666 262.3359375 111.8984375 C264.38634496 114.25373826 266.50737134 116.53037924 268.64990234 118.80175781 C328.52659929 182.50037158 360.0739443 272.55363036 359.75 359.25 C359.74726578 360.78146667 359.74726578 360.78146667 359.74447632 362.34387207 C359.58441434 415.88069275 348.03277698 467.728678 325.4375 516.3125 C325.04481934 517.15973633 324.65213867 518.00697266 324.24755859 518.87988281 C314.49863146 539.67597123 302.31787235 559.03904306 288.4375 577.3125 C287.70853516 578.27687988 287.70853516 578.27687988 286.96484375 579.26074219 C281.58608399 586.34326441 275.9893338 593.110361 269.921875 599.6171875 C267.96548563 601.7396854 266.0712155 603.88851505 264.1875 606.07421875 C260.19909384 610.64681796 255.97917505 614.96289299 251.6875 619.25 C250.89255127 620.04414307 250.09760254 620.83828613 249.27856445 621.65649414 C244.39313829 626.49122202 239.46680985 631.03588189 234.04296875 635.26171875 C231.62976446 637.16116741 229.32388098 639.15148658 227.01928711 641.18017578 C219.08486587 648.11406883 210.48839131 653.95552316 201.72412109 659.78417969 C199.6434114 661.17487397 197.57868081 662.58547499 195.51953125 664.0078125 C181.91485337 673.35256736 167.38913481 681.17223622 152.52001953 688.31054688 C151.11916722 688.98453256 149.72173229 689.66566287 148.32763672 690.35351562 C68.42928758 729.5942761 -28.62914191 732.10396767 -112.2421875 704.11328125 C-125.35276547 699.58401014 -138.0579797 694.30703339 -150.5625 688.3125 C-151.26133301 687.97895508 -151.96016602 687.64541016 -152.68017578 687.30175781 C-157.35268847 685.05653895 -161.9690398 682.71490442 -166.5625 680.3125 C-167.23893555 679.96171387 -167.91537109 679.61092773 -168.61230469 679.24951172 C-187.7865247 669.22520452 -205.88141935 657.08101102 -222.5625 643.3125 C-223.49578125 642.57 -224.4290625 641.8275 -225.390625 641.0625 C-243.60910211 626.48771831 -261.28332819 609.76965171 -275.5625 591.3125 C-276.5320694 590.14997129 -277.50641925 588.99142024 -278.484375 587.8359375 C-291.60880886 572.24020067 -302.66880232 555.11407767 -312.5625 537.3125 C-312.99626953 536.53535645 -313.43003906 535.75821289 -313.87695312 534.95751953 C-333.68985424 499.14463173 -346.53105478 460.16937071 -353.375 419.875 C-353.5699707 418.72862061 -353.76494141 417.58224121 -353.96582031 416.40112305 C-356.98248614 397.55228205 -357.94280482 378.82182863 -357.875 359.75 C-357.87284485 358.65344086 -357.8706897 357.55688171 -357.86846924 356.42709351 C-357.81537273 339.55115173 -357.33150156 322.99561103 -354.5625 306.3125 C-354.35850586 305.07628906 -354.15451172 303.84007812 -353.94433594 302.56640625 C-347.75988447 266.23387916 -336.85413128 231.40822791 -320.5625 198.3125 C-320.15032227 197.47428711 -319.73814453 196.63607422 -319.31347656 195.77246094 C-307.46279613 171.94695917 -292.77527835 149.60325781 -275.5625 129.3125 C-274.77875 128.34441406 -273.995 127.37632812 -273.1875 126.37890625 C-266.43089485 118.13194797 -259.01464753 110.54957052 -251.5 103 C-250.99338837 102.48821198 -250.48677673 101.97642395 -249.96481323 101.4491272 C-243.16752148 94.59715927 -236.12544713 88.32754372 -228.5625 82.3125 C-227.53493943 81.44912429 -226.51153936 80.58071749 -225.49609375 79.703125 C-209.44796545 65.94041091 -191.87198776 54.81564068 -173.5625 44.3125 C-172.7473291 43.84215332 -171.9321582 43.37180664 -171.09228516 42.88720703 C-136.04828082 22.89342534 -96.44740666 10.61190203 -56.8125 4.0625 C-55.9047583 3.91127686 -54.9970166 3.76005371 -54.06176758 3.60424805 C-36.11924856 0.82976091 -18.13334857 -0.06961894 0 0 Z " fill="#0C1C29" transform="translate(388.5625,9.6875)"/>
<path d="M0 0 C0.99674744 0.00182281 1.99349487 0.00364563 3.02044678 0.00552368 C19.65587981 0.05643866 35.96432111 0.82355419 52.4375 3.3125 C53.58734375 3.48410645 54.7371875 3.65571289 55.921875 3.83251953 C119.41351391 13.61323869 180.35494881 39.50405352 229.4375 81.3125 C230.60269382 82.29186986 231.76806992 83.2710229 232.93359375 84.25 C238.77556385 89.18235831 244.45694604 94.15121066 249.77734375 99.65234375 C251.6002788 101.53095517 251.6002788 101.53095517 254.5 103.8125 C257.45256571 106.32532188 259.83245836 108.95381666 262.3359375 111.8984375 C264.38634496 114.25373826 266.50737134 116.53037924 268.64990234 118.80175781 C328.52659929 182.50037158 360.0739443 272.55363036 359.75 359.25 C359.74726578 360.78146667 359.74726578 360.78146667 359.74447632 362.34387207 C359.58441434 415.88069275 348.03277698 467.728678 325.4375 516.3125 C325.04481934 517.15973633 324.65213867 518.00697266 324.24755859 518.87988281 C314.49863146 539.67597123 302.31787235 559.03904306 288.4375 577.3125 C287.70853516 578.27687988 287.70853516 578.27687988 286.96484375 579.26074219 C281.58608399 586.34326441 275.9893338 593.110361 269.921875 599.6171875 C267.96548563 601.7396854 266.0712155 603.88851505 264.1875 606.07421875 C260.19909384 610.64681796 255.97917505 614.96289299 251.6875 619.25 C250.89255127 620.04414307 250.09760254 620.83828613 249.27856445 621.65649414 C244.39313829 626.49122202 239.46680985 631.03588189 234.04296875 635.26171875 C231.62976446 637.16116741 229.32388098 639.15148658 227.01928711 641.18017578 C219.08486587 648.11406883 210.48839131 653.95552316 201.72412109 659.78417969 C199.6434114 661.17487397 197.57868081 662.58547499 195.51953125 664.0078125 C181.91485337 673.35256736 167.38913481 681.17223622 152.52001953 688.31054688 C151.11916722 688.98453256 149.72173229 689.66566287 148.32763672 690.35351562 C68.42928758 729.5942761 -28.62914191 732.10396767 -112.2421875 704.11328125 C-125.35276547 699.58401014 -138.0579797 694.30703339 -150.5625 688.3125 C-151.26133301 687.97895508 -151.96016602 687.64541016 -152.68017578 687.30175781 C-157.35268847 685.05653895 -161.9690398 682.71490442 -166.5625 680.3125 C-167.23893555 679.96171387 -167.91537109 679.61092773 -168.61230469 679.24951172 C-187.7865247 669.22520452 -205.88141935 657.08101102 -222.5625 643.3125 C-223.49578125 642.57 -224.4290625 641.8275 -225.390625 641.0625 C-243.60910211 626.48771831 -261.28332819 609.76965171 -275.5625 591.3125 C-276.5320694 590.14997129 -277.50641925 588.99142024 -278.484375 587.8359375 C-291.60880886 572.24020067 -302.66880232 555.11407767 -312.5625 537.3125 C-312.99626953 536.53535645 -313.43003906 535.75821289 -313.87695312 534.95751953 C-333.68985424 499.14463173 -346.53105478 460.16937071 -353.375 419.875 C-353.5699707 418.72862061 -353.76494141 417.58224121 -353.96582031 416.40112305 C-356.98248614 397.55228205 -357.94280482 378.82182863 -357.875 359.75 C-357.87284485 358.65344086 -357.8706897 357.55688171 -357.86846924 356.42709351 C-357.81537273 339.55115173 -357.33150156 322.99561103 -354.5625 306.3125 C-354.35850586 305.07628906 -354.15451172 303.84007812 -353.94433594 302.56640625 C-347.75988447 266.23387916 -336.85413128 231.40822791 -320.5625 198.3125 C-320.15032227 197.47428711 -319.73814453 196.63607422 -319.31347656 195.77246094 C-307.46279613 171.94695917 -292.77527835 149.60325781 -275.5625 129.3125 C-274.77875 128.34441406 -273.995 127.37632812 -273.1875 126.37890625 C-266.43089485 118.13194797 -259.01464753 110.54957052 -251.5 103 C-250.99338837 102.48821198 -250.48677673 101.97642395 -249.96481323 101.4491272 C-243.16752148 94.59715927 -236.12544713 88.32754372 -228.5625 82.3125 C-227.53493943 81.44912429 -226.51153936 80.58071749 -225.49609375 79.703125 C-209.44796545 65.94041091 -191.87198776 54.81564068 -173.5625 44.3125 C-172.7473291 43.84215332 -171.9321582 43.37180664 -171.09228516 42.88720703 C-136.04828082 22.89342534 -96.44740666 10.61190203 -56.8125 4.0625 C-55.9047583 3.91127686 -54.9970166 3.76005371 -54.06176758 3.60424805 C-36.11924856 0.82976091 -18.13334857 -0.06961894 0 0 Z M-135.5625 73.3125 C-136.95004438 73.97495721 -138.33805796 74.63643265 -139.7265625 75.296875 C-160.461155 85.28121373 -179.64152521 97.91112001 -197.5625 112.3125 C-198.56539063 113.10914062 -199.56828125 113.90578125 -200.6015625 114.7265625 C-209.01589142 121.58865786 -216.68608237 129.22471521 -224.375 136.875 C-224.91088745 137.40562042 -225.4467749 137.93624084 -225.99890137 138.48294067 C-232.99026862 145.42116454 -239.47030719 152.55425628 -245.5625 160.3125 C-246.03743896 160.90248779 -246.51237793 161.49247559 -247.00170898 162.1003418 C-297.69330111 225.07209276 -322.38429226 309.1599286 -314.8125 389.5625 C-314.45262193 392.82143235 -314.01878117 396.06581155 -313.5625 399.3125 C-313.43891113 400.24787598 -313.31532227 401.18325195 -313.18798828 402.14697266 C-304.68107295 465.44873417 -278.26179216 524.72576316 -235.5625 572.3125 C-235.0974707 572.83392578 -234.63244141 573.35535156 -234.15332031 573.89257812 C-225.16806331 583.94047224 -215.96034684 593.67469876 -205.36328125 602.046875 C-203.10809105 603.87115717 -200.94011832 605.73830186 -198.7734375 607.6640625 C-161.6550376 640.29026023 -113.52744944 662.04857655 -65.5625 672.625 C-64.53342529 672.85541992 -63.50435059 673.08583984 -62.4440918 673.32324219 C-42.93795076 677.38459877 -23.29744174 678.81701418 -3.40576172 678.70361328 C-0.06306192 678.68750271 3.2784295 678.70359999 6.62109375 678.72265625 C26.59888933 678.74303159 46.32863086 676.82315378 65.875 672.625 C67.07543945 672.37008789 68.27587891 672.11517578 69.51269531 671.85253906 C105.73247449 663.8893252 140.36106826 649.54690479 171.4375 629.3125 C172.22785645 628.79929199 173.01821289 628.28608398 173.83251953 627.75732422 C184.14883287 621.00643393 193.73532809 613.82684574 202.93212891 605.62353516 C205.09287053 603.74173455 207.36219187 602.00688166 209.625 600.25 C221.27890785 590.77795305 232.27319776 579.6706515 241.4921875 567.8125 C243.61545318 565.08380516 245.86487052 562.49122705 248.125 559.875 C263.15338316 541.81293702 275.37503368 521.58361639 285.44726562 500.39208984 C286.12088452 498.97742373 286.80218058 497.5663933 287.49023438 496.15869141 C298.87461276 472.79210147 306.46366344 447.78285345 311.4375 422.3125 C311.56075653 421.683508 311.68401306 421.05451599 311.81100464 420.40646362 C313.89324846 409.64206896 315.24729764 398.92517574 316.125 388 C316.18787201 387.23736847 316.25074402 386.47473694 316.31552124 385.68899536 C317.28044503 373.876115 318.01300741 362.16609609 317.4375 350.3125 C317.39496094 349.37341797 317.35242188 348.43433594 317.30859375 347.46679688 C313.06699124 262.68912626 276.42942153 183.31436065 214.4375 125.3125 C211.75403385 123.01351866 209.02823939 120.78517764 206.265625 118.58203125 C203.39509026 116.27846677 200.60764786 113.89420452 197.8125 111.5 C157.16528272 77.69697998 107.10285856 56.9310508 55.4375 47.3125 C54.30441406 47.10077148 53.17132813 46.88904297 52.00390625 46.67089844 C-10.79753756 35.52699769 -78.4058153 45.16976287 -135.5625 73.3125 Z " fill="#0D1D29" transform="translate(388.5625,9.6875)"/>
<path d="M0 0 C1.15113281 0.21430664 2.30226563 0.42861328 3.48828125 0.64941406 C59.50689263 11.44761441 112.63567318 36.17175599 154.78125 74.96484375 C156.77699099 76.7954442 158.81230611 78.55836483 160.875 80.3125 C164.40402407 83.39055345 167.74411864 86.63612805 171.0625 89.9375 C171.54509277 90.41550049 172.02768555 90.89350098 172.52490234 91.38598633 C176.54593306 95.42396912 180.27885615 99.68644044 184 104 C184.52037842 104.59240479 185.04075684 105.18480957 185.5769043 105.79516602 C201.43099839 123.91161137 215.09582208 144.5419792 226 166 C226.69851074 167.35448242 226.69851074 167.35448242 227.41113281 168.73632812 C248.92432609 210.7562495 259.6696043 255.9762241 262 303 C262.04141113 303.83031738 262.08282227 304.66063477 262.12548828 305.51611328 C265.36306916 383.20178508 236.09935027 464.66746007 184.25 522.375 C183.51652344 523.17164063 182.78304687 523.96828125 182.02734375 524.7890625 C180.2385666 526.73982911 178.52156881 528.72980395 176.8125 530.75 C168.87607671 539.82808975 160.22537718 548.3343782 150.7578125 555.80078125 C148.25313237 557.79813948 145.83355508 559.87041634 143.42138672 561.9777832 C98.79821982 600.73019355 39.16063193 623.23040124 -19 630 C-19.73515839 630.08732895 -20.47031677 630.1746579 -21.22775269 630.26463318 C-27.72598672 630.98018694 -34.15706117 631.17614458 -40.69140625 631.203125 C-41.79435532 631.20882507 -42.89730438 631.21452515 -44.03367615 631.22039795 C-46.36415667 631.2298003 -48.69465021 631.23636285 -51.02514648 631.24023438 C-54.50074228 631.2498295 -57.97571718 631.28085326 -61.45117188 631.3125 C-76.83822253 631.38572381 -91.78593674 630.30321236 -107 628 C-107.70401947 627.89347107 -108.40803894 627.78694214 -109.13339233 627.67718506 C-112.88762416 627.08830279 -116.59998401 626.37177027 -120.3125 625.5625 C-122.00294434 625.19451294 -122.00294434 625.19451294 -123.72753906 624.8190918 C-148.37641721 619.13562037 -172.43366169 610.38466031 -195 599 C-195.7724707 598.61779297 -196.54494141 598.23558594 -197.34082031 597.84179688 C-215.06864299 589.03612412 -231.42251802 578.17369664 -247 566 C-247.94488281 565.26910156 -248.88976562 564.53820312 -249.86328125 563.78515625 C-254.97830298 559.76791523 -259.84238223 555.521937 -264.64453125 551.13671875 C-266.66993971 549.29940792 -268.72831255 547.51959312 -270.8125 545.75 C-279.54344761 538.11483934 -287.63859717 529.81747722 -294.8359375 520.72265625 C-297.09590563 517.87933895 -299.4488946 515.13253964 -301.8125 512.375 C-330.3399414 478.07152332 -349.5266785 436.87256499 -361 394 C-361.24975586 393.08057617 -361.49951172 392.16115234 -361.75683594 391.21386719 C-375.18066379 341.11189666 -374.38788165 287.21243956 -362 237 C-361.75411133 236.00129883 -361.50822266 235.00259766 -361.25488281 233.97363281 C-346.50890515 175.41526481 -315.65911135 125.86759317 -273.5 83.3125 C-272.63375 82.43311768 -271.7675 81.55373535 -270.875 80.64770508 C-264.89922966 74.66462252 -258.64635492 69.22494996 -252 64 C-251.30938477 63.45545166 -250.61876953 62.91090332 -249.90722656 62.34985352 C-235.13903552 50.84880893 -219.50475274 40.81687117 -203 32 C-202.38398926 31.66935547 -201.76797852 31.33871094 -201.13330078 30.99804688 C-140.30798664 -1.33498669 -67.80412113 -12.6698827 0 0 Z M-103 29 C-104.00047363 29.17160645 -105.00094727 29.34321289 -106.03173828 29.52001953 C-154.09934891 38.08629701 -198.05777126 58.44744416 -236 89 C-236.51643066 89.4120166 -237.03286133 89.8240332 -237.56494141 90.24853516 C-253.67683871 103.2127604 -269.62654467 118.38597159 -281.71191406 135.22021484 C-283.15058115 137.20806229 -284.63232231 139.15972453 -286.1171875 141.11328125 C-330.24874589 199.81812192 -349.85219471 278.38053668 -340 351 C-339.90348145 351.72799805 -339.80696289 352.45599609 -339.70751953 353.20605469 C-335.61989264 382.91350397 -327.18449624 412.04727503 -314 439 C-313.57380371 439.87688477 -313.14760742 440.75376953 -312.70849609 441.65722656 C-302.93446482 461.56384263 -291.16140051 479.93448619 -277 497 C-276.55011719 497.55139648 -276.10023438 498.10279297 -275.63671875 498.67089844 C-264.1234169 512.75442331 -251.37529052 525.83492183 -237 537 C-235.86196927 537.93563156 -234.7267294 538.87466423 -233.59375 539.81640625 C-224.51588976 547.31872004 -215.06359045 553.88928094 -205 560 C-204.20352051 560.4846875 -203.40704102 560.969375 -202.58642578 561.46875 C-171.65394847 580.1119853 -138.49972067 592.46764837 -103 599 C-102.09411133 599.17644043 -101.18822266 599.35288086 -100.25488281 599.53466797 C-54.54735963 608.12291581 -3.56035496 602.25934901 40 587 C40.6590332 586.77376953 41.31806641 586.54753906 41.99707031 586.31445312 C75.30020193 574.79607678 105.23930916 556.80606417 132 534 C132.85207031 533.27941406 133.70414063 532.55882812 134.58203125 531.81640625 C146.99570155 520.96766202 159.00027898 509.12463383 169 496 C169.99861869 494.7397896 170.99874011 493.48076919 172 492.22265625 C194.3967639 463.83847295 211.40254365 431.02298083 221.35742188 396.23291016 C221.98042052 394.06803721 222.63719477 391.91564446 223.296875 389.76171875 C226.35256428 379.39457714 228.12748072 368.8552109 229.75 358.1875 C229.85700226 357.48993591 229.96400452 356.79237183 230.07424927 356.07366943 C238.64592628 299.57259294 230.47861899 239.37528095 205 188 C204.57525391 187.12891602 204.15050781 186.25783203 203.71289062 185.36035156 C185.90512226 149.07922123 160.17934774 114.80684588 128 90 C126.948576 89.14953419 125.89920407 88.29652709 124.8515625 87.44140625 C85.26588494 55.34599931 37.28838674 35.42400985 -13 28 C-13.79970215 27.88140625 -14.5994043 27.7628125 -15.42333984 27.640625 C-43.77083145 23.71531811 -74.81713868 24.15392839 -103 29 Z " fill="#FBFBFB" transform="translate(444,57)"/>
<path d="M0 0 C20.46 0 40.92 0 62 0 C67.90277196 11.21526673 73.7912405 22.4084163 79.4375 33.75 C79.7545993 34.38541718 80.07169861 35.02083435 80.39840698 35.67550659 C85.43186964 45.7647959 90.35241 55.90384942 95.1875 66.08984375 C98.14687399 72.32307853 101.1495455 78.53516704 104.15420532 84.74664307 C106.21543859 89.0092815 108.27221181 93.27407413 110.32958984 97.53857422 C111.41762728 99.7932066 112.50645469 102.04745798 113.59619141 104.30126953 C115.02635832 107.2614895 116.45146961 110.22408424 117.875 113.1875 C118.29789307 114.06035645 118.72078613 114.93321289 119.15649414 115.83251953 C119.72484985 117.01950439 119.72484985 117.01950439 120.3046875 118.23046875 C120.63452637 118.91520264 120.96436523 119.59993652 121.30419922 120.30541992 C122 122 122 122 122 124 C122.66 124 123.32 124 124 124 C124.37769531 122.76894531 124.75539063 121.53789062 125.14453125 120.26953125 C127.17845576 114.18197269 129.93440798 108.47664997 132.6875 102.6875 C133.86266307 100.19354659 135.0320514 97.6969232 136.19921875 95.19921875 C136.50552216 94.54388153 136.81182556 93.88854431 137.12741089 93.21334839 C140.86229051 85.19165492 144.42592555 77.09424322 148 69 C153.86070739 55.73918839 159.86574967 42.55866006 166.0078125 29.42578125 C169.41180459 22.14176832 172.7288921 14.81897184 176.01904297 7.48291016 C176.39947754 6.63905762 176.77991211 5.79520508 177.171875 4.92578125 C177.6683252 3.81843628 177.6683252 3.81843628 178.17480469 2.6887207 C179 1 179 1 180 0 C181.7492872 -0.09365006 183.50236254 -0.11744438 185.25415039 -0.11352539 C186.37523697 -0.11344986 187.49632355 -0.11337433 188.65138245 -0.11329651 C190.48103798 -0.10555458 190.48103798 -0.10555458 192.34765625 -0.09765625 C194.2100016 -0.09553383 194.2100016 -0.09553383 196.10997009 -0.09336853 C199.41605491 -0.08870591 202.72207146 -0.07971497 206.02813721 -0.06866455 C209.3996115 -0.05844827 212.77109283 -0.05387045 216.14257812 -0.04882812 C222.76173775 -0.03777395 229.38086493 -0.02101736 236 0 C234.66973014 4.2163925 233.08278532 8.16559797 231.19921875 12.1640625 C230.64097412 13.35402832 230.08272949 14.54399414 229.50756836 15.77001953 C228.90088301 17.05501496 228.29419344 18.34000839 227.6875 19.625 C227.05633393 20.96840498 226.42556224 22.31199531 225.79516602 23.65576172 C224.82323534 25.72741028 223.85106028 27.79894022 222.87767029 29.86990356 C219.70911039 36.61150985 216.57091501 43.3669834 213.4375 50.125 C212.90527832 51.27121826 212.37305664 52.41743652 211.82470703 53.59838867 C209.13965138 59.3816167 206.46021542 65.1673682 203.7890625 70.95703125 C197.11360573 85.40922829 190.28831325 99.77943535 183.33984375 114.1015625 C180.79282993 119.35255305 178.27295484 124.61565966 175.76831055 129.88696289 C170.78558659 140.37253004 165.65250044 150.77527309 160.41381836 161.13549805 C159.89698486 162.16070557 159.38015137 163.18591309 158.84765625 164.2421875 C158.39398682 165.1379248 157.94031738 166.03366211 157.47290039 166.95654297 C156.7438147 168.4630542 156.7438147 168.4630542 156 170 C155.50517514 170.92175821 155.50517514 170.92175821 155.00035381 171.86213779 C151.85038342 178.14298345 151.42025669 183.53221411 151.45410156 190.48657227 C151.43859505 192.15640419 151.43859505 192.15640419 151.42277527 193.85997009 C151.39345303 197.51226498 151.39185027 201.16400313 151.390625 204.81640625 C151.3756363 207.35946198 151.35890771 209.90250799 151.34051514 212.44554138 C151.30135608 218.43765446 151.27964743 224.4295812 151.26654124 230.4217872 C151.24905953 237.91996643 151.2046225 245.41795619 151.16015625 252.91601562 C151.08103669 266.27733844 151.04239759 279.63839824 151 293 C132.19 293 113.38 293 94 293 C94.13664062 285.46542969 94.27328125 277.93085938 94.4140625 270.16796875 C94.46058513 265.3140825 94.50159651 260.46133079 94.5234375 255.60742188 C94.55840207 247.94896 94.61066783 240.29417205 94.78515625 232.63745117 C95.4625849 201.74106365 94.50639025 177.76041645 77.26574707 151.54275513 C73.89327856 146.37317811 71.23084686 140.85637506 68.51953125 135.3203125 C67.56531848 133.44057766 66.60778618 131.56252375 65.64672852 129.6862793 C64.95197922 128.32302017 64.95197922 128.32302017 64.24319458 126.93222046 C57.22514967 113.16184659 50.19183493 99.4006072 43.0625 85.6875 C37.2842691 74.57116109 31.67071899 63.37796268 26.08621216 52.16345215 C20.13603094 40.21861176 14.03357093 28.36941916 7.71777344 16.61328125 C6.84881433 14.99499767 5.98126488 13.37595624 5.11523438 11.75610352 C4.3106058 10.2518599 3.50223086 8.74961197 2.68945312 7.24975586 C0 2.22417713 0 2.22417713 0 0 Z " fill="#FBFBFB" transform="translate(179,225)"/>
<path d="M0 0 C54.12 0 108.24 0 164 0 C164 16.83 164 33.66 164 51 C139.91 51 115.82 51 91 51 C91 130.86 91 210.72 91 293 C72.52 293 54.04 293 35 293 C35 213.14 35 133.28 35 51 C16.19 51 -2.62 51 -22 51 C-19.98254344 44.94763031 -17.91439826 39.23718692 -15.3125 33.45703125 C-14.96872314 32.6849382 -14.62494629 31.91284515 -14.27075195 31.11735535 C-13.54997938 29.50061787 -12.82722001 27.88476477 -12.10253906 26.26977539 C-10.99889193 23.81003039 -9.90127027 21.347667 -8.8046875 18.88476562 C-8.09930576 17.30453237 -7.39358815 15.72444899 -6.6875 14.14453125 C-6.36241455 13.4162764 -6.0373291 12.68802155 -5.70239258 11.93769836 C-5.39197021 11.2464537 -5.08154785 10.55520905 -4.76171875 9.84301758 C-4.49319092 9.24395096 -4.22466309 8.64488434 -3.94799805 8.02766418 C-2.6850408 5.3263367 -1.33358398 2.66716797 0 0 Z " fill="#FCFCFC" transform="translate(437,225)"/>
<path d="M0 0 C0.33 0 0.66 0 1 0 C2.02402486 7.36889309 2.18613773 14.62417396 2.18530273 22.05566406 C2.18750867 24.25865466 2.20577068 26.46115886 2.22460938 28.6640625 C2.22754057 30.07291497 2.2295272 31.48176979 2.23046875 32.890625 C2.23457764 34.15938477 2.23868652 35.42814453 2.24291992 36.73535156 C2.01623402 39.78182781 1.61259304 41.45468347 0 44 C-0.85194646 39.57317791 -1.12865657 35.3842322 -1.1328125 30.87890625 C-1.13376923 30.21592026 -1.13472595 29.55293427 -1.13571167 28.86985779 C-1.13638835 27.47565617 -1.13456999 26.08145132 -1.13037109 24.68725586 C-1.12502409 22.57202963 -1.1303291 20.45701652 -1.13671875 18.34179688 C-1.13605771 16.9791662 -1.13477602 15.61653567 -1.1328125 14.25390625 C-1.13168457 13.03002197 -1.13055664 11.8061377 -1.12939453 10.54516602 C-0.99877917 6.96655156 -0.57019354 3.53299164 0 0 Z " fill="#1B252D" transform="translate(103,349)"/>
<path d="M0 0 C15.18 0 30.36 0 46 0 C46.495 1.485 46.495 1.485 47 3 C31.49 3 15.98 3 0 3 C0 2.01 0 1.02 0 0 Z " fill="#1E2A34" transform="translate(366,10)"/>
<path d="M0 0 C1.39211215 4.17633644 -0.0464421 5.78960515 -1.9375 9.6875 C-2.50339844 10.86699219 -3.06929688 12.04648437 -3.65234375 13.26171875 C-4.09707031 14.16535156 -4.54179687 15.06898438 -5 16 C-5.66 16 -6.32 16 -7 16 C-7.69965443 14.73581754 -8.38434763 13.46334598 -9.0625 12.1875 C-9.44535156 11.47980469 -9.82820313 10.77210938 -10.22265625 10.04296875 C-11 8 -11 8 -10 5 C-9.54625 5.825 -9.0925 6.65 -8.625 7.5 C-8.08875 8.325 -7.5525 9.15 -7 10 C-6.34 10 -5.68 10 -5 10 C-5 9.34 -5 8.68 -5 8 C-4.34 8 -3.68 8 -3 8 C-2.690625 7.05125 -2.38125 6.1025 -2.0625 5.125 C-1 2 -1 2 0 0 Z " fill="#080F16" transform="translate(308,333)"/>
<path d="M0 0 C0 0.66 0 1.32 0 2 C-4.55763582 4.48703477 -8.70423336 6.74782064 -14 7 C-14.66 6.34 -15.32 5.68 -16 5 C-13.70967689 4.16280617 -11.41789043 3.3301071 -9.125 2.5 C-8.47402344 2.26152344 -7.82304687 2.02304687 -7.15234375 1.77734375 C-2.2265625 0 -2.2265625 0 0 0 Z " fill="#2C333B" transform="translate(273,29)"/>
<path d="M0 0 C0.77988281 -0.01417969 1.55976563 -0.02835938 2.36328125 -0.04296875 C4.8907668 0.20765587 6.50468031 0.92376228 8.6875 2.1875 C4.67797425 3.52400858 0.86733803 3.38975023 -3.3125 3.1875 C-3.9725 2.5275 -4.6325 1.8675 -5.3125 1.1875 C-3.74222683 -0.38277317 -2.16980053 0.01775614 0 0 Z " fill="#1A232C" transform="translate(416.3125,727.8125)"/>
<path d="M0 0 C2.19219402 2.36689329 2.9871902 3.51727269 3.07421875 6.796875 C2.94660156 7.77140625 2.81898437 8.7459375 2.6875 9.75 C2.56761719 10.73484375 2.44773437 11.7196875 2.32421875 12.734375 C2.21722656 13.48203125 2.11023438 14.2296875 2 15 C-0.35119399 11.47320901 -0.21443452 9.97120515 -0.125 5.8125 C-0.10695313 4.72582031 -0.08890625 3.63914062 -0.0703125 2.51953125 C-0.04710938 1.68808594 -0.02390625 0.85664063 0 0 Z " fill="#0B151F" transform="translate(104,336)"/>
<path d="M0 0 C2.63045135 2.48592106 3.94689361 4.48964537 5 8 C4.67 8.99 4.34 9.98 4 11 C1 9 1 9 0.48828125 6.8359375 C0.43027344 6.02382813 0.37226562 5.21171875 0.3125 4.375 C0.24675781 3.55773437 0.18101563 2.74046875 0.11328125 1.8984375 C0.07589844 1.27195312 0.03851563 0.64546875 0 0 Z " fill="#0A121A" transform="translate(95,490)"/>
<path d="M0 0 C0.66 0 1.32 0 2 0 C2.28571429 7.42857143 2.28571429 7.42857143 0 11 C-1.05404945 7.01803543 -0.84098656 4.01804691 0 0 Z " fill="#242C33" transform="translate(736,452)"/>
<path d="M0 0 C2.99220268 1.36370299 5.29026529 2.94908083 7.75 5.125 C8.67039063 5.93324219 8.67039063 5.93324219 9.609375 6.7578125 C10.06828125 7.16773438 10.5271875 7.57765625 11 8 C10.34 8.66 9.68 9.32 9 10 C7.49702124 8.52386015 5.99768715 7.04400843 4.5 5.5625 C3.6646875 4.73878906 2.829375 3.91507813 1.96875 3.06640625 C0 1 0 1 0 0 Z " fill="#252A31" transform="translate(141,630)"/>
<path d="M0 0 C-2.62198774 2.15377564 -4.64404172 3.40072174 -8 4 C-8 3.34 -8 2.68 -8 2 C-7.34 2 -6.68 2 -6 2 C-6 1.34 -6 0.68 -6 0 C-3.50907189 -1.24546405 -2.58919267 -0.7767578 0 0 Z " fill="#293239" transform="translate(537,699)"/>
<path d="M0 0 C0.33 0.99 0.66 1.98 1 3 C-1.875 3.125 -1.875 3.125 -5 3 C-5.66 2.34 -6.32 1.68 -7 1 C-4.53721199 -0.231394 -2.7204945 -0.07159196 0 0 Z " fill="#1B252D" transform="translate(430,686)"/>
<path d="M0 0 C2.64 0.33 5.28 0.66 8 1 C6 3 6 3 2.875 3.125 C1.451875 3.063125 1.451875 3.063125 0 3 C0 2.01 0 1.02 0 0 Z " fill="#232C35" transform="translate(461,17)"/>
<path d="M0 0 C2.97 0.33 5.94 0.66 9 1 C4.82091936 3.08954032 4.19589427 3.16552619 0 2 C0 1.34 0 0.68 0 0 Z " fill="#2B343D" transform="translate(450,15)"/>
</svg>
