<svg xmlns="http://www.w3.org/2000/svg" width="980" height="980" viewBox="0 0 980 980" version="1.1"><path d="M 311.252 229.070 C 248.264 235.161, 213.566 274.336, 218.945 333.287 C 223.638 384.710, 252.308 441.435, 305.710 504.956 C 311.048 511.305, 328.147 529.240, 343.708 544.811 L 372 573.121 372 597.561 L 372 622 402.075 622 L 432.151 622 446.325 632.201 C 530.491 692.773, 619.583 733.349, 697.240 746.478 C 746.554 754.815, 789.057 750.482, 816.995 734.269 C 825.892 729.106, 840.741 714.246, 845.372 705.871 C 851.753 694.330, 854.713 683.422, 856.432 665.114 C 857.192 657.020, 856.139 659.537, 854.484 669.772 C 848.149 708.944, 821.364 733.668, 775.500 742.681 C 763.306 745.077, 728.319 745.100, 712.500 742.722 C 646.289 732.769, 572.146 702.791, 496 655.188 C 364.615 573.052, 257.541 451.877, 234.007 358.692 C 222.251 312.143, 232.314 273.974, 262.285 251.445 C 280.605 237.674, 303.003 231.249, 336.500 230.158 C 352.203 229.647, 354.199 229.428, 348 228.900 C 337.781 228.030, 321.220 228.106, 311.252 229.070 M 320 244.117 C 278.723 248.837, 252.975 268.388, 244.429 301.500 C 242.195 310.156, 241.916 331.993, 243.900 343 C 259.703 430.689, 356.995 547.360, 485.500 632.724 C 564.370 685.117, 645.963 719.641, 714.500 729.622 C 730.856 732.004, 761.049 732.055, 773.671 729.722 C 784.757 727.673, 800.222 722.281, 807.879 717.794 C 816.999 712.449, 829.892 698.842, 834.268 689.942 C 840.959 676.332, 844.177 657.008, 842.252 642 L 841.418 635.500 840.182 644.779 C 836.646 671.320, 823.085 687.392, 797 695.956 C 783.933 700.246, 774.020 701.325, 752.977 700.747 C 726.564 700.022, 705.160 695.982, 674 685.840 C 624.486 669.724, 577.696 646.368, 524.863 611.394 C 395.693 525.888, 301.029 407.278, 301.003 330.910 C 300.988 285.754, 337.175 261.001, 396.177 265.807 C 457.736 270.822, 533.810 301.177, 611.250 351.626 C 618.263 356.195, 624 359.765, 624 359.561 C 624 358.268, 594.044 338.179, 570.800 323.884 C 479.890 267.972, 382.436 236.977, 320 244.117 M 335.493 400.750 C 352.325 433, 378.611 467.395, 413.254 502.498 C 428.357 517.801, 432.201 521.208, 433.002 520 C 434.839 517.231, 500.018 412.598, 505.100 404.260 C 509.187 397.554, 510.064 395.321, 509.811 392.260 L 509.500 388.500 477.027 388.500 L 444.553 388.500 423.527 427.225 C 411.962 448.524, 401.969 465.962, 401.320 465.975 C 400.671 465.989, 390.610 448.450, 378.962 427 L 357.783 388 343.311 388 L 328.839 388 335.493 400.750 M 524.234 414.750 L 524.500 441.500 553.250 441.765 L 582 442.031 582 532.030 L 582 622.030 611.250 621.765 L 640.500 621.500 640.755 531.766 L 641.011 442.031 669.255 441.766 L 697.500 441.500 697.766 414.750 L 698.033 388 611 388 L 523.967 388 524.234 414.750" stroke="none" fill="#f6f6f6" fill-rule="evenodd"/><path d="M -0 490.001 L -0 980.002 490.250 979.751 L 980.500 979.500 980.751 489.750 L 981.002 0 490.501 0 L 0 0 -0 490.001 M 0.496 490.500 C 0.496 760, 0.610 870.101, 0.750 735.168 C 0.890 600.236, 0.890 379.736, 0.750 245.168 C 0.610 110.601, 0.496 221, 0.496 490.500 M 311.252 229.070 C 248.264 235.161, 213.566 274.336, 218.945 333.287 C 223.638 384.710, 252.308 441.435, 305.710 504.956 C 311.048 511.305, 328.147 529.240, 343.708 544.811 L 372 573.121 372 597.561 L 372 622 402.075 622 L 432.151 622 446.325 632.201 C 530.491 692.773, 619.583 733.349, 697.240 746.478 C 746.554 754.815, 789.057 750.482, 816.995 734.269 C 825.892 729.106, 840.741 714.246, 845.372 705.871 C 851.753 694.330, 854.713 683.422, 856.432 665.114 C 857.192 657.020, 856.139 659.537, 854.484 669.772 C 848.149 708.944, 821.364 733.668, 775.500 742.681 C 763.306 745.077, 728.319 745.100, 712.500 742.722 C 646.289 732.769, 572.146 702.791, 496 655.188 C 364.615 573.052, 257.541 451.877, 234.007 358.692 C 222.251 312.143, 232.314 273.974, 262.285 251.445 C 280.605 237.674, 303.003 231.249, 336.500 230.158 C 352.203 229.647, 354.199 229.428, 348 228.900 C 337.781 228.030, 321.220 228.106, 311.252 229.070 M 320 244.117 C 278.723 248.837, 252.975 268.388, 244.429 301.500 C 242.195 310.156, 241.916 331.993, 243.900 343 C 259.703 430.689, 356.995 547.360, 485.500 632.724 C 564.370 685.117, 645.963 719.641, 714.500 729.622 C 730.856 732.004, 761.049 732.055, 773.671 729.722 C 784.757 727.673, 800.222 722.281, 807.879 717.794 C 816.999 712.449, 829.892 698.842, 834.268 689.942 C 840.959 676.332, 844.177 657.008, 842.252 642 L 841.418 635.500 840.182 644.779 C 836.646 671.320, 823.085 687.392, 797 695.956 C 783.933 700.246, 774.020 701.325, 752.977 700.747 C 726.564 700.022, 705.160 695.982, 674 685.840 C 624.486 669.724, 577.696 646.368, 524.863 611.394 C 395.693 525.888, 301.029 407.278, 301.003 330.910 C 300.988 285.754, 337.175 261.001, 396.177 265.807 C 457.736 270.822, 533.810 301.177, 611.250 351.626 C 618.263 356.195, 624 359.765, 624 359.561 C 624 358.268, 594.044 338.179, 570.800 323.884 C 479.890 267.972, 382.436 236.977, 320 244.117 M 335.493 400.750 C 352.325 433, 378.611 467.395, 413.254 502.498 C 428.357 517.801, 432.201 521.208, 433.002 520 C 434.839 517.231, 500.018 412.598, 505.100 404.260 C 509.187 397.554, 510.064 395.321, 509.811 392.260 L 509.500 388.500 477.027 388.500 L 444.553 388.500 423.527 427.225 C 411.962 448.524, 401.969 465.962, 401.320 465.975 C 400.671 465.989, 390.610 448.450, 378.962 427 L 357.783 388 343.311 388 L 328.839 388 335.493 400.750 M 524.234 414.750 L 524.500 441.500 553.250 441.765 L 582 442.031 582 532.030 L 582 622.030 611.250 621.765 L 640.500 621.500 640.755 531.766 L 641.011 442.031 669.255 441.766 L 697.500 441.500 697.766 414.750 L 698.033 388 611 388 L 523.967 388 524.234 414.750" stroke="none" fill="#040404" fill-rule="evenodd"/></svg>